<svg width="165" height="22" viewBox="0 0 165 22" fill="none" xmlns="http://www.w3.org/2000/svg">
<g clip-path="url(#clip0_18044_28562)">
<path d="M48.9358 11.0482V21.4608H44.3079V12.1087C44.3079 11.3374 44.2115 10.6625 43.9223 10.2768C43.4402 9.50553 42.6689 9.11988 41.4155 9.11988C39.8729 9.11988 38.8124 9.69836 38.3303 10.8553C38.041 11.4338 37.8482 12.2051 37.8482 13.1693V21.5573H33.3168V5.74539H37.6554V8.34856C38.2339 7.57725 38.8124 6.99877 39.2944 6.61312C40.2586 6.03463 41.4155 5.64898 42.8617 5.64898C44.5972 5.64898 46.1398 6.03463 47.2004 6.90236C48.3573 7.67367 48.9358 9.11988 48.9358 11.0482ZM64.8441 6.90236C63.6871 6.03463 62.2409 5.64898 60.5055 5.64898C59.0593 5.64898 57.9023 5.93822 56.9382 6.61312C56.4561 6.99877 55.8776 7.57725 55.2991 8.34856V5.74539H50.9605V21.5573H55.4919V13.1693C55.4919 12.2051 55.6848 11.4338 55.974 10.8553C56.5525 9.69836 57.6131 9.11988 59.0593 9.11988C60.3126 9.11988 61.1804 9.50553 61.566 10.2768C61.7589 10.7589 61.9517 11.3374 61.9517 12.1087V21.4608H66.5795V11.0482C66.5795 9.11988 66.0011 7.67367 64.8441 6.90236ZM159.426 11.6266C159.523 12.3015 159.619 13.2657 159.523 14.6155H148.724C148.821 16.0617 149.303 17.1222 150.267 17.7971C150.845 18.1828 151.617 18.3756 152.388 18.3756C153.256 18.3756 154.027 18.1828 154.509 17.7007C154.798 17.4115 155.087 17.1222 155.28 16.6402H159.233C159.137 17.5079 158.655 18.3756 157.787 19.3397C156.437 20.786 154.605 21.5573 152.195 21.5573C150.17 21.5573 148.435 20.9788 146.989 19.7254C145.446 18.472 144.675 16.5437 144.771 13.7477C144.771 11.1446 145.446 9.21629 146.796 7.77008C148.146 6.42029 149.978 5.74539 152.099 5.74539C153.352 5.74539 154.509 5.93822 155.57 6.42029C156.63 6.90236 157.498 7.57725 158.173 8.63781C158.848 9.40912 159.233 10.4697 159.426 11.6266ZM155.57 12.0123C155.473 10.9517 155.184 10.1804 154.509 9.69836C153.931 9.11987 153.159 8.92705 152.195 8.92705C151.231 8.92705 150.46 9.21629 149.881 9.79477C149.303 10.3733 149.013 11.1446 148.821 12.1087L155.57 12.0123ZM164.15 4.10635C164.15 5.93822 162.704 7.38443 160.872 7.38443C159.04 7.38443 157.594 5.93822 157.594 4.10635C157.594 2.27449 159.04 0.828283 160.872 0.828283C162.704 0.828283 164.15 2.27449 164.15 4.10635ZM163.572 4.10635C163.572 2.66015 162.415 1.40677 160.872 1.40677C159.426 1.40677 158.173 2.66015 158.173 4.10635C158.173 5.55256 159.33 6.80594 160.872 6.80594C162.319 6.80594 163.572 5.55256 163.572 4.10635ZM7.8635 8.92705C8.82764 8.92705 9.59895 9.21629 10.081 9.79477C10.3703 10.2768 10.3703 10.3733 10.5631 10.7589H14.9017C14.6125 8.63781 13.9376 7.67367 12.5878 6.80594C11.3344 5.93822 9.69536 5.55256 7.67067 5.55256C5.35674 5.55256 3.42846 6.22746 2.17508 7.67367C0.825286 9.11988 0.150391 11.0482 0.150391 13.6513C0.150391 15.9653 0.728874 17.7971 1.98225 19.1469C3.23563 20.5931 5.0675 21.268 7.67067 21.268C10.2738 21.268 12.2021 20.4003 13.4555 18.6648C14.2268 17.6043 14.8053 16.4473 14.9017 15.2904H10.6595C10.5631 16.0617 10.2738 16.7366 9.88819 17.2186C9.50253 17.7007 8.82764 17.99 7.76708 17.99C6.41729 17.99 5.45315 17.4115 4.97108 16.1581C4.68184 15.4832 4.58543 14.6155 4.58543 13.5549C4.58543 12.3979 4.68184 11.5302 4.97108 10.7589C5.45315 9.60194 6.41729 8.92705 7.8635 8.92705ZM31.2921 10.2768V21.3644H26.857V19.2433C26.2785 19.8218 25.7001 20.2075 24.9288 20.5931C23.9646 21.0752 22.9041 21.3644 21.7471 21.3644C20.2045 21.3644 18.9511 20.9788 17.987 20.2075C17.0228 19.4362 16.5407 18.3756 16.5407 16.9294C16.5407 15.0975 17.3121 13.7477 18.9511 12.9764C19.8188 12.4944 21.1686 12.2051 22.8076 12.0123L24.3503 11.8195C25.1216 11.723 25.7965 11.6266 26.0857 11.4338C26.7606 11.241 27.0499 10.8553 27.0499 10.2768C27.0499 9.69836 26.7606 9.21629 26.2785 9.02346C25.7965 8.83063 25.1216 8.63781 24.1574 8.63781C23.0969 8.63781 22.3256 8.83063 21.9399 9.3127C21.6507 9.60194 21.4579 10.084 21.3614 10.6625H17.1192C17.2156 9.3127 17.6013 8.25215 18.3726 7.48084C19.5296 6.13105 21.5543 5.55256 24.3503 5.55256C26.1821 5.55256 27.8212 5.8418 29.2674 6.5167C30.6172 7.1916 31.2921 8.44498 31.2921 10.2768ZM26.5678 13.6513C26.2785 13.8442 25.7001 13.9406 25.4108 14.037C25.1216 14.1334 24.7359 14.2298 24.2539 14.3262L23.2897 14.5191C22.3256 14.7119 21.6507 14.8083 21.265 15.0975C20.5901 15.4832 20.2045 15.9653 20.2045 16.7366C20.2045 17.4115 20.3973 17.8935 20.8794 18.1828C21.265 18.472 21.8435 18.6648 22.422 18.6648C23.3861 18.6648 24.2539 18.3756 25.0252 17.8935C25.7965 17.4115 26.5678 16.5437 26.5678 15.1939V13.6513ZM82.9699 7.96291C84.4161 9.50553 85.091 11.3374 85.091 13.5549C85.091 15.7724 84.4161 17.6043 82.9699 19.1469C81.5237 20.6895 79.4026 21.4608 76.6066 21.4608C73.7142 21.4608 71.5931 20.6895 70.2433 19.1469C68.7971 17.6043 68.1222 15.7724 68.1222 13.5549C68.1222 11.4338 68.7971 9.60194 70.2433 7.96291C71.5931 6.42029 73.8106 5.64898 76.6066 5.64898C79.4026 5.64898 81.5237 6.42029 82.9699 7.96291ZM80.4631 13.5549C80.4631 12.1087 80.0775 10.9517 79.4026 10.084C78.7277 9.3127 77.7636 8.92705 76.5102 8.92705C75.2568 8.92705 74.2927 9.3127 73.6178 10.084C72.9429 10.8553 72.5572 12.0123 72.5572 13.5549C72.5572 15.0011 72.9429 16.1581 73.6178 17.0258C74.2927 17.7971 75.2568 18.2792 76.5102 18.2792C77.7636 18.2792 78.7277 17.8935 79.4026 17.0258C80.1739 16.1581 80.4631 15.0011 80.4631 13.5549ZM136.865 10.2768V21.3644H132.43V19.2433C131.852 19.8218 131.273 20.2075 130.502 20.5931C129.538 21.0752 128.477 21.3644 127.32 21.3644C125.778 21.3644 124.524 20.9788 123.56 20.2075C122.596 19.4362 122.114 18.3756 122.114 16.9294C122.114 15.0975 122.885 13.7477 124.524 12.9764C125.392 12.4944 126.742 12.2051 128.381 12.0123L129.923 11.8195C130.695 11.723 131.37 11.6266 131.659 11.4338C132.334 11.241 132.623 10.8553 132.623 10.2768C132.623 9.69836 132.334 9.21629 131.852 9.02346C131.37 8.83063 130.695 8.63781 129.731 8.63781C128.67 8.63781 127.899 8.83063 127.513 9.3127C127.224 9.60194 127.031 10.084 126.935 10.6625H122.692C122.789 9.3127 123.174 8.25215 123.946 7.48084C125.103 6.13105 127.127 5.55256 129.923 5.55256C131.755 5.55256 133.394 5.8418 134.841 6.5167C136.19 7.1916 136.865 8.44498 136.865 10.2768ZM132.141 13.6513C131.852 13.8442 131.273 13.9406 130.984 14.037C130.695 14.1334 130.309 14.2298 129.827 14.3262L128.863 14.5191C127.899 14.7119 127.224 14.8083 126.838 15.0975C126.163 15.4832 125.778 15.9653 125.778 16.7366C125.778 17.4115 125.97 17.8935 126.453 18.1828C126.838 18.472 127.417 18.6648 127.995 18.6648C128.959 18.6648 129.827 18.3756 130.598 17.8935C131.37 17.4115 132.141 16.5437 132.141 15.1939V13.6513ZM138.89 0.539041V21.4608H143.325V0.539041H138.89ZM161.547 4.10635C161.933 4.10635 162.222 4.20277 162.222 4.58842V5.55256H161.547V4.78125C161.547 4.49201 161.451 4.3956 161.162 4.3956H160.39V5.55256H159.715V2.46732H161.162C161.836 2.46732 162.222 2.85297 162.222 3.33504C162.222 3.81711 161.933 4.00994 161.547 4.10635ZM161.547 3.43146C161.547 3.14222 161.354 3.0458 160.969 3.0458H160.39V3.91353H160.969C161.354 3.91353 161.547 3.7207 161.547 3.43146ZM116.136 0.442627H120.571V21.3644H116.136V19.2433C115.558 19.9182 114.979 20.4003 114.304 20.786C113.437 21.1716 112.183 21.3644 110.93 21.3644C108.905 21.3644 107.17 20.5931 105.82 19.1469C104.47 17.7007 103.795 15.8688 103.795 13.5549C103.795 10.9517 104.663 9.21629 106.013 7.67367C107.363 6.13105 109.387 5.55256 111.316 5.55256C112.376 5.55256 113.533 5.74539 114.401 6.13105C115.076 6.42029 115.847 7.09518 116.329 7.57725V0.442627H116.136ZM115.461 13.4585C115.461 11.5302 114.883 10.1804 113.822 9.40912C113.147 8.92705 112.376 8.63781 111.508 8.63781C110.159 8.63781 109.194 9.11988 108.616 9.9876C108.038 10.8553 107.652 12.0123 107.652 13.2657C107.652 14.7119 107.941 15.8688 108.616 16.6402C109.291 17.5079 110.159 17.8935 111.508 17.8935C112.762 17.8935 113.726 17.5079 114.401 16.6402C115.172 15.8688 115.461 14.8083 115.461 13.4585ZM100.421 6.90236C99.2638 6.03463 97.8176 5.64898 96.0822 5.64898C94.636 5.64898 93.479 5.93822 92.6113 6.61312C92.1292 6.99877 91.5507 7.57725 90.9723 8.34856V5.74539H86.6336V21.5573H91.1651V13.1693C91.1651 12.2051 91.3579 11.4338 91.6471 10.8553C92.2256 9.69836 93.2862 9.11988 94.7324 9.11988C95.9858 9.11988 96.8535 9.50553 97.2392 10.2768C97.432 10.7589 97.6248 11.3374 97.6248 12.1087V21.4608H102.253V11.0482C102.156 9.11988 101.578 7.67367 100.421 6.90236Z" fill="white"/>
</g>
<defs>
<clipPath id="clip0_18044_28562">
<rect width="164" height="22" fill="white" transform="translate(0.150391)"/>
</clipPath>
</defs>
</svg>
